ISO-10303-21;
HEADER;
/* Generated by software containing ST-Developer
 * from STEP Tools, Inc. (www.steptools.com) 
 */

FILE_DESCRIPTION(
/* description */ (''),
/* implementation_level */ '2;1');

FILE_NAME(
/* name */ 'Reflector.stp',
/* time_stamp */ '2026-07-13T19:01:27+02:00',
/* author */ ('aleja'),
/* organization */ (''),
/* preprocessor_version */ 'ST-DEVELOPER v20.1',
/* originating_system */ 'Autodesk Inventor 2026',
/* authorisation */ '');

FILE_SCHEMA (('AUTOMOTIVE_DESIGN { 1 0 10303 214 3 1 1 }'));
ENDSEC;

DATA;
#10=MECHANICAL_DESIGN_GEOMETRIC_PRESENTATION_REPRESENTATION('',(#13),#780);
#11=SHAPE_REPRESENTATION_RELATIONSHIP('SRR','None',#787,#12);
#12=ADVANCED_BREP_SHAPE_REPRESENTATION('',(#14),#779);
#13=STYLED_ITEM('',(#796),#14);
#14=MANIFOLD_SOLID_BREP('Solid1',#455);
#15=PLANE('',#481);
#16=PLANE('',#482);
#17=PLANE('',#483);
#18=PLANE('',#485);
#19=PLANE('',#487);
#20=PLANE('',#488);
#21=PLANE('',#489);
#22=PLANE('',#491);
#23=PLANE('',#492);
#24=PLANE('',#493);
#25=PLANE('',#497);
#26=PLANE('',#499);
#27=PLANE('',#501);
#28=PLANE('',#503);
#29=PLANE('',#504);
#30=PLANE('',#508);
#31=PLANE('',#509);
#32=PLANE('',#510);
#33=PLANE('',#512);
#34=PLANE('',#514);
#35=PLANE('',#515);
#36=PLANE('',#516);
#37=PLANE('',#518);
#38=PLANE('',#519);
#39=FACE_OUTER_BOUND('',#69,.T.);
#40=FACE_OUTER_BOUND('',#70,.T.);
#41=FACE_OUTER_BOUND('',#71,.T.);
#42=FACE_OUTER_BOUND('',#72,.T.);
#43=FACE_OUTER_BOUND('',#73,.T.);
#44=FACE_OUTER_BOUND('',#74,.T.);
#45=FACE_OUTER_BOUND('',#75,.T.);
#46=FACE_OUTER_BOUND('',#76,.T.);
#47=FACE_OUTER_BOUND('',#77,.T.);
#48=FACE_OUTER_BOUND('',#78,.T.);
#49=FACE_OUTER_BOUND('',#79,.T.);
#50=FACE_OUTER_BOUND('',#80,.T.);
#51=FACE_OUTER_BOUND('',#81,.T.);
#52=FACE_OUTER_BOUND('',#82,.T.);
#53=FACE_OUTER_BOUND('',#83,.T.);
#54=FACE_OUTER_BOUND('',#84,.T.);
#55=FACE_OUTER_BOUND('',#85,.T.);
#56=FACE_OUTER_BOUND('',#86,.T.);
#57=FACE_OUTER_BOUND('',#87,.T.);
#58=FACE_OUTER_BOUND('',#88,.T.);
#59=FACE_OUTER_BOUND('',#89,.T.);
#60=FACE_OUTER_BOUND('',#90,.T.);
#61=FACE_OUTER_BOUND('',#91,.T.);
#62=FACE_OUTER_BOUND('',#92,.T.);
#63=FACE_OUTER_BOUND('',#93,.T.);
#64=FACE_OUTER_BOUND('',#94,.T.);
#65=FACE_OUTER_BOUND('',#95,.T.);
#66=FACE_OUTER_BOUND('',#96,.T.);
#67=FACE_OUTER_BOUND('',#97,.T.);
#68=FACE_OUTER_BOUND('',#98,.T.);
#69=EDGE_LOOP('',(#299,#300,#301,#302));
#70=EDGE_LOOP('',(#303,#304,#305,#306));
#71=EDGE_LOOP('',(#307,#308,#309,#310));
#72=EDGE_LOOP('',(#311,#312,#313,#314));
#73=EDGE_LOOP('',(#315,#316,#317,#318));
#74=EDGE_LOOP('',(#319,#320,#321,#322));
#75=EDGE_LOOP('',(#323,#324,#325,#326));
#76=EDGE_LOOP('',(#327,#328,#329,#330));
#77=EDGE_LOOP('',(#331,#332,#333,#334));
#78=EDGE_LOOP('',(#335,#336,#337,#338));
#79=EDGE_LOOP('',(#339,#340,#341,#342));
#80=EDGE_LOOP('',(#343,#344,#345,#346));
#81=EDGE_LOOP('',(#347,#348,#349,#350));
#82=EDGE_LOOP('',(#351,#352,#353,#354));
#83=EDGE_LOOP('',(#355,#356,#357,#358));
#84=EDGE_LOOP('',(#359,#360,#361,#362));
#85=EDGE_LOOP('',(#363,#364,#365,#366));
#86=EDGE_LOOP('',(#367,#368,#369,#370));
#87=EDGE_LOOP('',(#371,#372,#373,#374));
#88=EDGE_LOOP('',(#375,#376,#377,#378));
#89=EDGE_LOOP('',(#379,#380,#381,#382));
#90=EDGE_LOOP('',(#383,#384,#385,#386));
#91=EDGE_LOOP('',(#387,#388,#389,#390));
#92=EDGE_LOOP('',(#391,#392,#393,#394));
#93=EDGE_LOOP('',(#395,#396,#397,#398));
#94=EDGE_LOOP('',(#399,#400,#401,#402));
#95=EDGE_LOOP('',(#403,#404,#405,#406));
#96=EDGE_LOOP('',(#407,#408,#409,#410));
#97=EDGE_LOOP('',(#411,#412,#413,#414));
#98=EDGE_LOOP('',(#415,#416,#417,#418));
#99=CIRCLE('',#479,0.999999999999988);
#100=CIRCLE('',#480,1.00000000000001);
#101=CIRCLE('',#484,0.500000000000007);
#102=CIRCLE('',#486,0.500000000000007);
#103=CIRCLE('',#495,1.);
#104=CIRCLE('',#496,0.999999999999996);
#105=CIRCLE('',#498,0.499999999999998);
#106=CIRCLE('',#500,0.499999999999998);
#107=CIRCLE('',#506,1.);
#108=CIRCLE('',#507,0.999999999999996);
#109=CIRCLE('',#511,0.499999999999998);
#110=CIRCLE('',#513,0.499999999999998);
#111=LINE('',#658,#159);
#112=LINE('',#662,#160);
#113=LINE('',#666,#161);
#114=LINE('',#668,#162);
#115=LINE('',#670,#163);
#116=LINE('',#671,#164);
#117=LINE('',#674,#165);
#118=LINE('',#676,#166);
#119=LINE('',#677,#167);
#120=LINE('',#679,#168);
#121=LINE('',#682,#169);
#122=LINE('',#685,#170);
#123=LINE('',#689,#171);
#124=LINE('',#690,#172);
#125=LINE('',#692,#173);
#126=LINE('',#695,#174);
#127=LINE('',#698,#175);
#128=LINE('',#700,#176);
#129=LINE('',#701,#177);
#130=LINE('',#704,#178);
#131=LINE('',#705,#179);
#132=LINE('',#708,#180);
#133=LINE('',#709,#181);
#134=LINE('',#711,#182);
#135=LINE('',#715,#183);
#136=LINE('',#720,#184);
#137=LINE('',#723,#185);
#138=LINE('',#727,#186);
#139=LINE('',#730,#187);
#140=LINE('',#732,#188);
#141=LINE('',#733,#189);
#142=LINE('',#736,#190);
#143=LINE('',#737,#191);
#144=LINE('',#741,#192);
#145=LINE('',#746,#193);
#146=LINE('',#748,#194);
#147=LINE('',#750,#195);
#148=LINE('',#751,#196);
#149=LINE('',#754,#197);
#150=LINE('',#756,#198);
#151=LINE('',#757,#199);
#152=LINE('',#759,#200);
#153=LINE('',#763,#201);
#154=LINE('',#767,#202);
#155=LINE('',#768,#203);
#156=LINE('',#770,#204);
#157=LINE('',#773,#205);
#158=LINE('',#775,#206);
#159=VECTOR('',#524,10.);
#160=VECTOR('',#527,10.);
#161=VECTOR('',#532,10.);
#162=VECTOR('',#533,10.);
#163=VECTOR('',#534,10.);
#164=VECTOR('',#535,10.);
#165=VECTOR('',#538,10.);
#166=VECTOR('',#539,10.);
#167=VECTOR('',#540,10.);
#168=VECTOR('',#543,10.);
#169=VECTOR('',#546,10.);
#170=VECTOR('',#549,10.);
#171=VECTOR('',#554,10.);
#172=VECTOR('',#555,10.);
#173=VECTOR('',#558,10.);
#174=VECTOR('',#563,10.);
#175=VECTOR('',#566,10.);
#176=VECTOR('',#567,10.);
#177=VECTOR('',#568,10.);
#178=VECTOR('',#571,10.);
#179=VECTOR('',#572,10.);
#180=VECTOR('',#575,10.);
#181=VECTOR('',#576,10.);
#182=VECTOR('',#579,10.);
#183=VECTOR('',#582,10.);
#184=VECTOR('',#589,10.);
#185=VECTOR('',#592,10.);
#186=VECTOR('',#599,10.);
#187=VECTOR('',#602,10.);
#188=VECTOR('',#603,10.);
#189=VECTOR('',#604,10.);
#190=VECTOR('',#607,10.);
#191=VECTOR('',#608,10.);
#192=VECTOR('',#611,10.);
#193=VECTOR('',#618,10.);
#194=VECTOR('',#619,10.);
#195=VECTOR('',#620,10.);
#196=VECTOR('',#621,10.);
#197=VECTOR('',#624,10.);
#198=VECTOR('',#625,10.);
#199=VECTOR('',#626,10.);
#200=VECTOR('',#629,10.);
#201=VECTOR('',#634,10.);
#202=VECTOR('',#639,10.);
#203=VECTOR('',#640,10.);
#204=VECTOR('',#643,10.);
#205=VECTOR('',#648,10.);
#206=VECTOR('',#651,10.);
#207=VERTEX_POINT('',#656);
#208=VERTEX_POINT('',#657);
#209=VERTEX_POINT('',#659);
#210=VERTEX_POINT('',#661);
#211=VERTEX_POINT('',#665);
#212=VERTEX_POINT('',#667);
#213=VERTEX_POINT('',#669);
#214=VERTEX_POINT('',#673);
#215=VERTEX_POINT('',#675);
#216=VERTEX_POINT('',#680);
#217=VERTEX_POINT('',#684);
#218=VERTEX_POINT('',#688);
#219=VERTEX_POINT('',#697);
#220=VERTEX_POINT('',#699);
#221=VERTEX_POINT('',#703);
#222=VERTEX_POINT('',#707);
#223=VERTEX_POINT('',#712);
#224=VERTEX_POINT('',#714);
#225=VERTEX_POINT('',#718);
#226=VERTEX_POINT('',#722);
#227=VERTEX_POINT('',#729);
#228=VERTEX_POINT('',#731);
#229=VERTEX_POINT('',#735);
#230=VERTEX_POINT('',#739);
#231=VERTEX_POINT('',#740);
#232=VERTEX_POINT('',#745);
#233=VERTEX_POINT('',#747);
#234=VERTEX_POINT('',#749);
#235=VERTEX_POINT('',#753);
#236=VERTEX_POINT('',#755);
#237=VERTEX_POINT('',#762);
#238=VERTEX_POINT('',#766);
#239=EDGE_CURVE('',#207,#208,#111,.T.);
#240=EDGE_CURVE('',#209,#207,#99,.T.);
#241=EDGE_CURVE('',#210,#209,#112,.T.);
#242=EDGE_CURVE('',#208,#210,#100,.T.);
#243=EDGE_CURVE('',#208,#211,#113,.T.);
#244=EDGE_CURVE('',#211,#212,#114,.T.);
#245=EDGE_CURVE('',#212,#213,#115,.T.);
#246=EDGE_CURVE('',#213,#208,#116,.T.);
#247=EDGE_CURVE('',#211,#214,#117,.T.);
#248=EDGE_CURVE('',#214,#215,#118,.T.);
#249=EDGE_CURVE('',#215,#212,#119,.T.);
#250=EDGE_CURVE('',#214,#207,#120,.T.);
#251=EDGE_CURVE('',#216,#214,#101,.T.);
#252=EDGE_CURVE('',#209,#216,#121,.T.);
#253=EDGE_CURVE('',#217,#210,#122,.T.);
#254=EDGE_CURVE('',#217,#211,#102,.T.);
#255=EDGE_CURVE('',#207,#218,#123,.T.);
#256=EDGE_CURVE('',#215,#218,#124,.T.);
#257=EDGE_CURVE('',#218,#213,#125,.T.);
#258=EDGE_CURVE('',#216,#217,#126,.T.);
#259=EDGE_CURVE('',#219,#216,#127,.T.);
#260=EDGE_CURVE('',#219,#220,#128,.T.);
#261=EDGE_CURVE('',#220,#209,#129,.T.);
#262=EDGE_CURVE('',#221,#217,#130,.T.);
#263=EDGE_CURVE('',#221,#219,#131,.T.);
#264=EDGE_CURVE('',#210,#222,#132,.T.);
#265=EDGE_CURVE('',#222,#221,#133,.T.);
#266=EDGE_CURVE('',#220,#222,#134,.T.);
#267=EDGE_CURVE('',#223,#220,#103,.T.);
#268=EDGE_CURVE('',#224,#223,#135,.T.);
#269=EDGE_CURVE('',#222,#224,#104,.T.);
#270=EDGE_CURVE('',#225,#219,#105,.T.);
#271=EDGE_CURVE('',#223,#225,#136,.T.);
#272=EDGE_CURVE('',#226,#224,#137,.T.);
#273=EDGE_CURVE('',#226,#221,#106,.T.);
#274=EDGE_CURVE('',#225,#226,#138,.T.);
#275=EDGE_CURVE('',#224,#227,#139,.T.);
#276=EDGE_CURVE('',#227,#228,#140,.T.);
#277=EDGE_CURVE('',#228,#226,#141,.T.);
#278=EDGE_CURVE('',#229,#223,#142,.T.);
#279=EDGE_CURVE('',#229,#227,#143,.T.);
#280=EDGE_CURVE('',#230,#231,#144,.T.);
#281=EDGE_CURVE('',#227,#230,#107,.T.);
#282=EDGE_CURVE('',#231,#229,#108,.T.);
#283=EDGE_CURVE('',#231,#232,#145,.T.);
#284=EDGE_CURVE('',#232,#233,#146,.T.);
#285=EDGE_CURVE('',#233,#234,#147,.T.);
#286=EDGE_CURVE('',#234,#231,#148,.T.);
#287=EDGE_CURVE('',#232,#235,#149,.T.);
#288=EDGE_CURVE('',#235,#236,#150,.T.);
#289=EDGE_CURVE('',#236,#233,#151,.T.);
#290=EDGE_CURVE('',#235,#230,#152,.T.);
#291=EDGE_CURVE('',#228,#235,#109,.T.);
#292=EDGE_CURVE('',#237,#229,#153,.T.);
#293=EDGE_CURVE('',#237,#232,#110,.T.);
#294=EDGE_CURVE('',#230,#238,#154,.T.);
#295=EDGE_CURVE('',#236,#238,#155,.T.);
#296=EDGE_CURVE('',#238,#234,#156,.T.);
#297=EDGE_CURVE('',#228,#237,#157,.T.);
#298=EDGE_CURVE('',#225,#237,#158,.T.);
#299=ORIENTED_EDGE('',*,*,#239,.F.);
#300=ORIENTED_EDGE('',*,*,#240,.F.);
#301=ORIENTED_EDGE('',*,*,#241,.F.);
#302=ORIENTED_EDGE('',*,*,#242,.F.);
#303=ORIENTED_EDGE('',*,*,#243,.T.);
#304=ORIENTED_EDGE('',*,*,#244,.T.);
#305=ORIENTED_EDGE('',*,*,#245,.T.);
#306=ORIENTED_EDGE('',*,*,#246,.T.);
#307=ORIENTED_EDGE('',*,*,#247,.T.);
#308=ORIENTED_EDGE('',*,*,#248,.T.);
#309=ORIENTED_EDGE('',*,*,#249,.T.);
#310=ORIENTED_EDGE('',*,*,#244,.F.);
#311=ORIENTED_EDGE('',*,*,#250,.F.);
#312=ORIENTED_EDGE('',*,*,#251,.F.);
#313=ORIENTED_EDGE('',*,*,#252,.F.);
#314=ORIENTED_EDGE('',*,*,#240,.T.);
#315=ORIENTED_EDGE('',*,*,#243,.F.);
#316=ORIENTED_EDGE('',*,*,#242,.T.);
#317=ORIENTED_EDGE('',*,*,#253,.F.);
#318=ORIENTED_EDGE('',*,*,#254,.T.);
#319=ORIENTED_EDGE('',*,*,#250,.T.);
#320=ORIENTED_EDGE('',*,*,#255,.T.);
#321=ORIENTED_EDGE('',*,*,#256,.F.);
#322=ORIENTED_EDGE('',*,*,#248,.F.);
#323=ORIENTED_EDGE('',*,*,#257,.T.);
#324=ORIENTED_EDGE('',*,*,#245,.F.);
#325=ORIENTED_EDGE('',*,*,#249,.F.);
#326=ORIENTED_EDGE('',*,*,#256,.T.);
#327=ORIENTED_EDGE('',*,*,#239,.T.);
#328=ORIENTED_EDGE('',*,*,#246,.F.);
#329=ORIENTED_EDGE('',*,*,#257,.F.);
#330=ORIENTED_EDGE('',*,*,#255,.F.);
#331=ORIENTED_EDGE('',*,*,#247,.F.);
#332=ORIENTED_EDGE('',*,*,#254,.F.);
#333=ORIENTED_EDGE('',*,*,#258,.F.);
#334=ORIENTED_EDGE('',*,*,#251,.T.);
#335=ORIENTED_EDGE('',*,*,#252,.T.);
#336=ORIENTED_EDGE('',*,*,#259,.F.);
#337=ORIENTED_EDGE('',*,*,#260,.T.);
#338=ORIENTED_EDGE('',*,*,#261,.T.);
#339=ORIENTED_EDGE('',*,*,#258,.T.);
#340=ORIENTED_EDGE('',*,*,#262,.F.);
#341=ORIENTED_EDGE('',*,*,#263,.T.);
#342=ORIENTED_EDGE('',*,*,#259,.T.);
#343=ORIENTED_EDGE('',*,*,#253,.T.);
#344=ORIENTED_EDGE('',*,*,#264,.T.);
#345=ORIENTED_EDGE('',*,*,#265,.T.);
#346=ORIENTED_EDGE('',*,*,#262,.T.);
#347=ORIENTED_EDGE('',*,*,#266,.F.);
#348=ORIENTED_EDGE('',*,*,#267,.F.);
#349=ORIENTED_EDGE('',*,*,#268,.F.);
#350=ORIENTED_EDGE('',*,*,#269,.F.);
#351=ORIENTED_EDGE('',*,*,#260,.F.);
#352=ORIENTED_EDGE('',*,*,#270,.F.);
#353=ORIENTED_EDGE('',*,*,#271,.F.);
#354=ORIENTED_EDGE('',*,*,#267,.T.);
#355=ORIENTED_EDGE('',*,*,#265,.F.);
#356=ORIENTED_EDGE('',*,*,#269,.T.);
#357=ORIENTED_EDGE('',*,*,#272,.F.);
#358=ORIENTED_EDGE('',*,*,#273,.T.);
#359=ORIENTED_EDGE('',*,*,#241,.T.);
#360=ORIENTED_EDGE('',*,*,#261,.F.);
#361=ORIENTED_EDGE('',*,*,#266,.T.);
#362=ORIENTED_EDGE('',*,*,#264,.F.);
#363=ORIENTED_EDGE('',*,*,#263,.F.);
#364=ORIENTED_EDGE('',*,*,#273,.F.);
#365=ORIENTED_EDGE('',*,*,#274,.F.);
#366=ORIENTED_EDGE('',*,*,#270,.T.);
#367=ORIENTED_EDGE('',*,*,#272,.T.);
#368=ORIENTED_EDGE('',*,*,#275,.T.);
#369=ORIENTED_EDGE('',*,*,#276,.T.);
#370=ORIENTED_EDGE('',*,*,#277,.T.);
#371=ORIENTED_EDGE('',*,*,#268,.T.);
#372=ORIENTED_EDGE('',*,*,#278,.F.);
#373=ORIENTED_EDGE('',*,*,#279,.T.);
#374=ORIENTED_EDGE('',*,*,#275,.F.);
#375=ORIENTED_EDGE('',*,*,#280,.F.);
#376=ORIENTED_EDGE('',*,*,#281,.F.);
#377=ORIENTED_EDGE('',*,*,#279,.F.);
#378=ORIENTED_EDGE('',*,*,#282,.F.);
#379=ORIENTED_EDGE('',*,*,#283,.T.);
#380=ORIENTED_EDGE('',*,*,#284,.T.);
#381=ORIENTED_EDGE('',*,*,#285,.T.);
#382=ORIENTED_EDGE('',*,*,#286,.T.);
#383=ORIENTED_EDGE('',*,*,#287,.T.);
#384=ORIENTED_EDGE('',*,*,#288,.T.);
#385=ORIENTED_EDGE('',*,*,#289,.T.);
#386=ORIENTED_EDGE('',*,*,#284,.F.);
#387=ORIENTED_EDGE('',*,*,#290,.F.);
#388=ORIENTED_EDGE('',*,*,#291,.F.);
#389=ORIENTED_EDGE('',*,*,#276,.F.);
#390=ORIENTED_EDGE('',*,*,#281,.T.);
#391=ORIENTED_EDGE('',*,*,#283,.F.);
#392=ORIENTED_EDGE('',*,*,#282,.T.);
#393=ORIENTED_EDGE('',*,*,#292,.F.);
#394=ORIENTED_EDGE('',*,*,#293,.T.);
#395=ORIENTED_EDGE('',*,*,#290,.T.);
#396=ORIENTED_EDGE('',*,*,#294,.T.);
#397=ORIENTED_EDGE('',*,*,#295,.F.);
#398=ORIENTED_EDGE('',*,*,#288,.F.);
#399=ORIENTED_EDGE('',*,*,#296,.T.);
#400=ORIENTED_EDGE('',*,*,#285,.F.);
#401=ORIENTED_EDGE('',*,*,#289,.F.);
#402=ORIENTED_EDGE('',*,*,#295,.T.);
#403=ORIENTED_EDGE('',*,*,#280,.T.);
#404=ORIENTED_EDGE('',*,*,#286,.F.);
#405=ORIENTED_EDGE('',*,*,#296,.F.);
#406=ORIENTED_EDGE('',*,*,#294,.F.);
#407=ORIENTED_EDGE('',*,*,#287,.F.);
#408=ORIENTED_EDGE('',*,*,#293,.F.);
#409=ORIENTED_EDGE('',*,*,#297,.F.);
#410=ORIENTED_EDGE('',*,*,#291,.T.);
#411=ORIENTED_EDGE('',*,*,#271,.T.);
#412=ORIENTED_EDGE('',*,*,#298,.T.);
#413=ORIENTED_EDGE('',*,*,#292,.T.);
#414=ORIENTED_EDGE('',*,*,#278,.T.);
#415=ORIENTED_EDGE('',*,*,#274,.T.);
#416=ORIENTED_EDGE('',*,*,#277,.F.);
#417=ORIENTED_EDGE('',*,*,#297,.T.);
#418=ORIENTED_EDGE('',*,*,#298,.F.);
#419=CYLINDRICAL_SURFACE('',#478,0.999999999999976);
#420=CYLINDRICAL_SURFACE('',#490,0.499999999999987);
#421=CYLINDRICAL_SURFACE('',#494,1.);
#422=CYLINDRICAL_SURFACE('',#502,0.500000000000001);
#423=CYLINDRICAL_SURFACE('',#505,1.);
#424=CYLINDRICAL_SURFACE('',#517,0.500000000000001);
#425=ADVANCED_FACE('',(#39),#419,.T.);
#426=ADVANCED_FACE('',(#40),#15,.T.);
#427=ADVANCED_FACE('',(#41),#16,.T.);
#428=ADVANCED_FACE('',(#42),#17,.T.);
#429=ADVANCED_FACE('',(#43),#18,.T.);
#430=ADVANCED_FACE('',(#44),#19,.T.);
#431=ADVANCED_FACE('',(#45),#20,.T.);
#432=ADVANCED_FACE('',(#46),#21,.F.);
#433=ADVANCED_FACE('',(#47),#420,.F.);
#434=ADVANCED_FACE('',(#48),#22,.T.);
#435=ADVANCED_FACE('',(#49),#23,.T.);
#436=ADVANCED_FACE('',(#50),#24,.T.);
#437=ADVANCED_FACE('',(#51),#421,.T.);
#438=ADVANCED_FACE('',(#52),#25,.T.);
#439=ADVANCED_FACE('',(#53),#26,.T.);
#440=ADVANCED_FACE('',(#54),#27,.F.);
#441=ADVANCED_FACE('',(#55),#422,.F.);
#442=ADVANCED_FACE('',(#56),#28,.T.);
#443=ADVANCED_FACE('',(#57),#29,.F.);
#444=ADVANCED_FACE('',(#58),#423,.T.);
#445=ADVANCED_FACE('',(#59),#30,.T.);
#446=ADVANCED_FACE('',(#60),#31,.T.);
#447=ADVANCED_FACE('',(#61),#32,.T.);
#448=ADVANCED_FACE('',(#62),#33,.T.);
#449=ADVANCED_FACE('',(#63),#34,.T.);
#450=ADVANCED_FACE('',(#64),#35,.T.);
#451=ADVANCED_FACE('',(#65),#36,.F.);
#452=ADVANCED_FACE('',(#66),#424,.F.);
#453=ADVANCED_FACE('',(#67),#37,.T.);
#454=ADVANCED_FACE('',(#68),#38,.T.);
#455=CLOSED_SHELL('',(#425,#426,#427,#428,#429,#430,#431,#432,#433,#434,
#435,#436,#437,#438,#439,#440,#441,#442,#443,#444,#445,#446,#447,#448,#449,
#450,#451,#452,#453,#454));
#456=DERIVED_UNIT_ELEMENT(#459,1.);
#457=DERIVED_UNIT_ELEMENT(#782,-3.);
#458=DIMENSIONAL_EXPONENTS(0.,1.,0.,0.,0.,0.,0.);
#459=(
CONVERSION_BASED_UNIT('gram',#461)
MASS_UNIT()
NAMED_UNIT(#458)
);
#460=(
MASS_UNIT()
NAMED_UNIT(*)
SI_UNIT(.KILO.,.GRAM.)
);
#461=MASS_MEASURE_WITH_UNIT(MASS_MEASURE(0.001),#460);
#462=DERIVED_UNIT((#456,#457));
#463=MEASURE_REPRESENTATION_ITEM('density measure',
POSITIVE_RATIO_MEASURE(1.),#462);
#464=PROPERTY_DEFINITION_REPRESENTATION(#469,#466);
#465=PROPERTY_DEFINITION_REPRESENTATION(#470,#467);
#466=REPRESENTATION('material name',(#468),#779);
#467=REPRESENTATION('density',(#463),#779);
#468=DESCRIPTIVE_REPRESENTATION_ITEM('Generic','Generic');
#469=PROPERTY_DEFINITION('material property','material name',#789);
#470=PROPERTY_DEFINITION('material property','density of part',#789);
#471=DATE_TIME_ROLE('creation_date');
#472=APPLIED_DATE_AND_TIME_ASSIGNMENT(#473,#471,(#789));
#473=DATE_AND_TIME(#474,#475);
#474=CALENDAR_DATE(2026,13,7);
#475=LOCAL_TIME(0,0,0.,#476);
#476=COORDINATED_UNIVERSAL_TIME_OFFSET(0,0,.BEHIND.);
#477=AXIS2_PLACEMENT_3D('',#654,#520,#521);
#478=AXIS2_PLACEMENT_3D('',#655,#522,#523);
#479=AXIS2_PLACEMENT_3D('',#660,#525,#526);
#480=AXIS2_PLACEMENT_3D('',#663,#528,#529);
#481=AXIS2_PLACEMENT_3D('',#664,#530,#531);
#482=AXIS2_PLACEMENT_3D('',#672,#536,#537);
#483=AXIS2_PLACEMENT_3D('',#678,#541,#542);
#484=AXIS2_PLACEMENT_3D('',#681,#544,#545);
#485=AXIS2_PLACEMENT_3D('',#683,#547,#548);
#486=AXIS2_PLACEMENT_3D('',#686,#550,#551);
#487=AXIS2_PLACEMENT_3D('',#687,#552,#553);
#488=AXIS2_PLACEMENT_3D('',#691,#556,#557);
#489=AXIS2_PLACEMENT_3D('',#693,#559,#560);
#490=AXIS2_PLACEMENT_3D('',#694,#561,#562);
#491=AXIS2_PLACEMENT_3D('',#696,#564,#565);
#492=AXIS2_PLACEMENT_3D('',#702,#569,#570);
#493=AXIS2_PLACEMENT_3D('',#706,#573,#574);
#494=AXIS2_PLACEMENT_3D('',#710,#577,#578);
#495=AXIS2_PLACEMENT_3D('',#713,#580,#581);
#496=AXIS2_PLACEMENT_3D('',#716,#583,#584);
#497=AXIS2_PLACEMENT_3D('',#717,#585,#586);
#498=AXIS2_PLACEMENT_3D('',#719,#587,#588);
#499=AXIS2_PLACEMENT_3D('',#721,#590,#591);
#500=AXIS2_PLACEMENT_3D('',#724,#593,#594);
#501=AXIS2_PLACEMENT_3D('',#725,#595,#596);
#502=AXIS2_PLACEMENT_3D('',#726,#597,#598);
#503=AXIS2_PLACEMENT_3D('',#728,#600,#601);
#504=AXIS2_PLACEMENT_3D('',#734,#605,#606);
#505=AXIS2_PLACEMENT_3D('',#738,#609,#610);
#506=AXIS2_PLACEMENT_3D('',#742,#612,#613);
#507=AXIS2_PLACEMENT_3D('',#743,#614,#615);
#508=AXIS2_PLACEMENT_3D('',#744,#616,#617);
#509=AXIS2_PLACEMENT_3D('',#752,#622,#623);
#510=AXIS2_PLACEMENT_3D('',#758,#627,#628);
#511=AXIS2_PLACEMENT_3D('',#760,#630,#631);
#512=AXIS2_PLACEMENT_3D('',#761,#632,#633);
#513=AXIS2_PLACEMENT_3D('',#764,#635,#636);
#514=AXIS2_PLACEMENT_3D('',#765,#637,#638);
#515=AXIS2_PLACEMENT_3D('',#769,#641,#642);
#516=AXIS2_PLACEMENT_3D('',#771,#644,#645);
#517=AXIS2_PLACEMENT_3D('',#772,#646,#647);
#518=AXIS2_PLACEMENT_3D('',#774,#649,#650);
#519=AXIS2_PLACEMENT_3D('',#776,#652,#653);
#520=DIRECTION('axis',(0.,0.,1.));
#521=DIRECTION('refdir',(1.,0.,0.));
#522=DIRECTION('center_axis',(1.,-5.75623649639615E-33,1.48684582373288E-16));
#523=DIRECTION('ref_axis',(1.48684582373288E-16,8.79021729677973E-15,-1.));
#524=DIRECTION('',(-1.,3.77339422765887E-18,-1.48684582373288E-16));
#525=DIRECTION('center_axis',(1.,-5.75623649639615E-33,1.48684582373288E-16));
#526=DIRECTION('ref_axis',(0.,0.,-1.));
#527=DIRECTION('',(1.,0.,1.47374890860087E-16));
#528=DIRECTION('center_axis',(-1.,5.75623649639615E-33,-1.48684582373288E-16));
#529=DIRECTION('ref_axis',(0.,1.,0.));
#530=DIRECTION('center_axis',(-1.,-1.48684582373373E-16,-1.58551274537978E-14));
#531=DIRECTION('ref_axis',(1.48684582373288E-16,-1.,5.39030285815812E-15));
#532=DIRECTION('',(1.48684582373427E-16,-1.,-3.39991443862161E-15));
#533=DIRECTION('',(-1.58551274537978E-14,-2.46291857755414E-15,1.));
#534=DIRECTION('',(-1.48684582373288E-16,1.,-5.39030285815812E-15));
#535=DIRECTION('',(1.58551274537978E-14,2.46291857755414E-15,-1.));
#536=DIRECTION('center_axis',(2.55266289271281E-18,-1.,-3.49774011843188E-15));
#537=DIRECTION('ref_axis',(1.,2.55266289271227E-18,1.48684582373288E-16));
#538=DIRECTION('',(1.,2.55266289271227E-18,1.48684582373288E-16));
#539=DIRECTION('',(-1.58551274537978E-14,-2.46291857755414E-15,1.));
#540=DIRECTION('',(-1.,-6.54845756600918E-19,-1.48684582373288E-16));
#541=DIRECTION('center_axis',(1.,-5.75623649639615E-33,1.48684582373288E-16));
#542=DIRECTION('ref_axis',(1.48684582373288E-16,0.,-1.));
#543=DIRECTION('',(-1.48684582373289E-16,1.,3.39991443862161E-15));
#544=DIRECTION('center_axis',(1.,-5.75623649639615E-33,1.48684582373288E-16));
#545=DIRECTION('ref_axis',(0.,0.,-1.));
#546=DIRECTION('',(-1.48029736616688E-16,0.,1.));
#547=DIRECTION('center_axis',(-1.,5.75623649639615E-33,-1.48684582373288E-16));
#548=DIRECTION('ref_axis',(-1.48684582373288E-16,0.,1.));
#549=DIRECTION('',(1.48029736616966E-16,0.,-1.));
#550=DIRECTION('center_axis',(1.,-5.75623649639615E-33,1.48684582373288E-16));
#551=DIRECTION('ref_axis',(0.,0.,-1.));
#552=DIRECTION('center_axis',(1.,1.48684582373288E-16,1.20678956526889E-16));
#553=DIRECTION('ref_axis',(-1.48684582373288E-16,1.,-5.39030285815812E-15));
#554=DIRECTION('',(-1.20678956526888E-16,-3.39991443862161E-15,1.));
#555=DIRECTION('',(-1.48684582373288E-16,1.,-5.39030285815812E-15));
#556=DIRECTION('center_axis',(-1.48684582373288E-16,5.39030285815812E-15,
1.));
#557=DIRECTION('ref_axis',(1.48684582373288E-16,-1.,5.39030285815812E-15));
#558=DIRECTION('',(-1.,-6.54845756600918E-19,-1.48684582373288E-16));
#559=DIRECTION('center_axis',(-3.77339422765833E-18,-1.,-3.49774011843188E-15));
#560=DIRECTION('ref_axis',(1.,-3.77339422765887E-18,1.48684582373288E-16));
#561=DIRECTION('center_axis',(1.,-5.75623649639615E-33,1.48684582373288E-16));
#562=DIRECTION('ref_axis',(1.48684582373288E-16,8.79021729677973E-15,-1.));
#563=DIRECTION('',(-1.,0.,-1.48684582373288E-16));
#564=DIRECTION('center_axis',(1.,0.,1.48029736616688E-16));
#565=DIRECTION('ref_axis',(-1.3065508742723E-30,1.,8.82055185704388E-15));
#566=DIRECTION('',(-3.15609154794662E-14,1.,8.88190514951038E-15));
#567=DIRECTION('',(1.48029736616688E-16,8.82055185704388E-15,-1.));
#568=DIRECTION('',(-1.3065508742723E-30,1.,8.82055185704388E-15));
#569=DIRECTION('center_axis',(-1.48684582373288E-16,-8.79021729677973E-15,
1.));
#570=DIRECTION('ref_axis',(1.48029736616689E-16,-1.,-8.79021729677973E-15));
#571=DIRECTION('',(-3.15609154794662E-14,1.,8.88190514951038E-15));
#572=DIRECTION('',(1.,0.,1.48684582373288E-16));
#573=DIRECTION('center_axis',(-1.,-3.15609154794662E-14,-1.48029736616966E-16));
#574=DIRECTION('ref_axis',(3.15609154794662E-14,-1.,-8.82055185704388E-15));
#575=DIRECTION('',(3.15609154794662E-14,-1.,-8.88190514951038E-15));
#576=DIRECTION('',(-1.48029736616688E-16,-8.82055185704388E-15,1.));
#577=DIRECTION('center_axis',(1.,0.,1.48029736616688E-16));
#578=DIRECTION('ref_axis',(0.,-1.,0.));
#579=DIRECTION('',(-1.,0.,-1.47374890860087E-16));
#580=DIRECTION('center_axis',(1.,0.,1.48029736616688E-16));
#581=DIRECTION('ref_axis',(0.,-1.,0.));
#582=DIRECTION('',(1.,0.,1.48029736616688E-16));
#583=DIRECTION('center_axis',(-1.,0.,-1.48029736616688E-16));
#584=DIRECTION('ref_axis',(0.,-5.41233724504766E-15,-1.));
#585=DIRECTION('center_axis',(1.,0.,1.48029736616688E-16));
#586=DIRECTION('ref_axis',(1.48029736616688E-16,0.,-1.));
#587=DIRECTION('center_axis',(1.,0.,1.48029736616688E-16));
#588=DIRECTION('ref_axis',(0.,-1.,0.));
#589=DIRECTION('',(0.,1.,0.));
#590=DIRECTION('center_axis',(-1.,0.,-1.48029736616688E-16));
#591=DIRECTION('ref_axis',(-1.48029736616688E-16,0.,1.));
#592=DIRECTION('',(0.,-1.,0.));
#593=DIRECTION('center_axis',(1.,0.,1.48029736616688E-16));
#594=DIRECTION('ref_axis',(0.,-1.,0.));
#595=DIRECTION('center_axis',(-1.47374890860087E-16,-8.79021729677973E-15,
1.));
#596=DIRECTION('ref_axis',(1.48029736616689E-16,-1.,-8.79021729677973E-15));
#597=DIRECTION('center_axis',(1.,0.,1.48029736616688E-16));
#598=DIRECTION('ref_axis',(0.,-1.,0.));
#599=DIRECTION('',(-1.,0.,-1.48029736616688E-16));
#600=DIRECTION('center_axis',(-1.,0.,3.5527136788005E-16));
#601=DIRECTION('ref_axis',(3.5527136788005E-16,0.,1.));
#602=DIRECTION('',(3.5527136788005E-16,0.,1.));
#603=DIRECTION('',(0.,1.,0.));
#604=DIRECTION('',(-3.5527136788005E-16,0.,-1.));
#605=DIRECTION('center_axis',(0.,1.,0.));
#606=DIRECTION('ref_axis',(0.,0.,1.));
#607=DIRECTION('',(-1.1842378929335E-16,0.,-1.));
#608=DIRECTION('',(-1.,0.,2.96059473233375E-16));
#609=DIRECTION('center_axis',(-1.,0.,2.96059473233375E-16));
#610=DIRECTION('ref_axis',(0.,-1.,0.));
#611=DIRECTION('',(1.,0.,-2.96714318989976E-16));
#612=DIRECTION('center_axis',(-1.,0.,2.96059473233375E-16));
#613=DIRECTION('ref_axis',(0.,-1.,0.));
#614=DIRECTION('center_axis',(1.,0.,-2.96059473233375E-16));
#615=DIRECTION('ref_axis',(0.,-5.41233724504766E-15,1.));
#616=DIRECTION('center_axis',(1.,-7.82361548838905E-14,-2.96059473233797E-16));
#617=DIRECTION('ref_axis',(-7.82361548838905E-14,-1.,-5.3903028581581E-15));
#618=DIRECTION('',(-2.96059473233375E-16,5.39030285815812E-15,-1.));
#619=DIRECTION('',(7.82361548838905E-14,1.,5.32894956569159E-15));
#620=DIRECTION('',(2.96059473233375E-16,-5.39030285815812E-15,1.));
#621=DIRECTION('',(-7.82361548838905E-14,-1.,-5.32894956569159E-15));
#622=DIRECTION('center_axis',(-2.95404627476774E-16,5.42063741842228E-15,
-1.));
#623=DIRECTION('ref_axis',(-2.96059473233374E-16,1.,5.42063741842228E-15));
#624=DIRECTION('',(-1.,0.,2.95404627476774E-16));
#625=DIRECTION('',(4.68232691410409E-14,1.,5.3289495656916E-15));
#626=DIRECTION('',(1.,0.,-2.96059473233375E-16));
#627=DIRECTION('center_axis',(-1.,0.,2.96059473233375E-16));
#628=DIRECTION('ref_axis',(2.96059473233375E-16,0.,1.));
#629=DIRECTION('',(2.96059473233375E-16,-5.39030285815812E-15,1.));
#630=DIRECTION('center_axis',(-1.,0.,2.96059473233375E-16));
#631=DIRECTION('ref_axis',(0.,-1.,0.));
#632=DIRECTION('center_axis',(1.,0.,-2.96059473233375E-16));
#633=DIRECTION('ref_axis',(-2.96059473233375E-16,0.,-1.));
#634=DIRECTION('',(0.,-1.,0.));
#635=DIRECTION('center_axis',(-1.,0.,2.96059473233375E-16));
#636=DIRECTION('ref_axis',(0.,-1.,-1.77635683940026E-14));
#637=DIRECTION('center_axis',(-1.,0.,2.96059473233375E-16));
#638=DIRECTION('ref_axis',(1.57772181044202E-30,1.,5.39030285815812E-15));
#639=DIRECTION('',(1.57772181044202E-30,1.,5.39030285815812E-15));
#640=DIRECTION('',(2.96059473233375E-16,-5.39030285815812E-15,1.));
#641=DIRECTION('center_axis',(1.57772181044202E-30,1.,5.39030285815812E-15));
#642=DIRECTION('ref_axis',(1.,0.,-2.96059473233375E-16));
#643=DIRECTION('',(1.,0.,-2.96059473233375E-16));
#644=DIRECTION('center_axis',(-2.96714318989976E-16,5.42063741842228E-15,
-1.));
#645=DIRECTION('ref_axis',(-2.96059473233374E-16,1.,5.42063741842228E-15));
#646=DIRECTION('center_axis',(-1.,0.,2.96059473233375E-16));
#647=DIRECTION('ref_axis',(0.,-1.,0.));
#648=DIRECTION('',(1.,0.,-2.96059473233375E-16));
#649=DIRECTION('center_axis',(1.,0.,-1.1842378929335E-16));
#650=DIRECTION('ref_axis',(-1.1842378929335E-16,0.,-1.));
#651=DIRECTION('',(1.1842378929335E-16,0.,1.));
#652=DIRECTION('center_axis',(0.,1.,0.));
#653=DIRECTION('ref_axis',(0.,0.,1.));
#654=CARTESIAN_POINT('',(0.,0.,0.));
#655=CARTESIAN_POINT('Origin',(1.76565154946937E-14,119.,-73.9999999999989));
#656=CARTESIAN_POINT('',(120.,120.,-73.9999999999989));
#657=CARTESIAN_POINT('',(-120.,120.,-73.999999999999));
#658=CARTESIAN_POINT('',(2.42975660761043E-14,120.,-73.9999999999989));
#659=CARTESIAN_POINT('',(119.999999999996,119.,-74.9999999999989));
#660=CARTESIAN_POINT('Origin',(120.,119.,-73.9999999999989));
#661=CARTESIAN_POINT('',(-120.000000000004,119.,-74.999999999999));
#662=CARTESIAN_POINT('',(-60.0000000000019,119.,-74.999999999999));
#663=CARTESIAN_POINT('Origin',(-120.,119.,-73.9999999999989));
#664=CARTESIAN_POINT('Origin',(-120.,119.5,-73.999999999999));
#665=CARTESIAN_POINT('',(-120.,119.5,-73.999999999999));
#666=CARTESIAN_POINT('',(-120.,119.61,-73.999999999999));
#667=CARTESIAN_POINT('',(-120.,119.499999999999,74.000000000001));
#668=CARTESIAN_POINT('',(-120.,119.5,-75.1309733552913));
#669=CARTESIAN_POINT('',(-120.,119.999999999999,74.000000000001));
#670=CARTESIAN_POINT('',(-120.,119.499999999999,74.000000000001));
#671=CARTESIAN_POINT('',(-120.,120.,-75.1309733552913));
#672=CARTESIAN_POINT('Origin',(2.0093322453198E-14,119.5,-0.565486677645168));
#673=CARTESIAN_POINT('',(120.,119.5,-73.9999999999989));
#674=CARTESIAN_POINT('',(2.4334489739424E-14,119.5,-73.9999999999989));
#675=CARTESIAN_POINT('',(120.,119.499999999999,74.0000000000011));
#676=CARTESIAN_POINT('',(120.,119.5,-75.1309733552913));
#677=CARTESIAN_POINT('',(120.,119.499999999999,74.0000000000011));
#678=CARTESIAN_POINT('Origin',(120.,119.5,-73.9999999999989));
#679=CARTESIAN_POINT('',(120.,119.61,-73.9999999999989));
#680=CARTESIAN_POINT('',(119.999999999996,119.,-74.4999999999989));
#681=CARTESIAN_POINT('Origin',(120.,119.,-73.9999999999989));
#682=CARTESIAN_POINT('',(120.,119.,-74.4999999999994));
#683=CARTESIAN_POINT('Origin',(-120.,120.,-73.9999999999989));
#684=CARTESIAN_POINT('',(-120.000000000004,119.,-74.499999999999));
#685=CARTESIAN_POINT('',(-120.000000000004,119.,-74.4999999999995));
#686=CARTESIAN_POINT('Origin',(-120.,119.,-73.9999999999989));
#687=CARTESIAN_POINT('Origin',(120.,119.5,-73.9999999999989));
#688=CARTESIAN_POINT('',(120.,119.999999999999,74.0000000000011));
#689=CARTESIAN_POINT('',(120.,120.,-73.9999999999989));
#690=CARTESIAN_POINT('',(120.,119.499999999999,74.0000000000011));
#691=CARTESIAN_POINT('Origin',(120.,119.499999999999,74.0000000000011));
#692=CARTESIAN_POINT('',(120.,119.999999999999,74.0000000000011));
#693=CARTESIAN_POINT('Origin',(2.00189801620113E-14,120.,-0.565486677645168));
#694=CARTESIAN_POINT('Origin',(1.76565154946937E-14,119.,-73.9999999999989));
#695=CARTESIAN_POINT('',(-60.0000000000019,119.,-74.499999999999));
#696=CARTESIAN_POINT('Origin',(120.,1.00000000000001,-74.5));
#697=CARTESIAN_POINT('',(120.,1.00000000000001,-74.5));
#698=CARTESIAN_POINT('',(120.,-0.130973355292321,-74.5));
#699=CARTESIAN_POINT('',(120.,1.00000000000001,-75.));
#700=CARTESIAN_POINT('',(120.,1.00000000000001,-74.61));
#701=CARTESIAN_POINT('',(120.,1.00000000000001,-75.));
#702=CARTESIAN_POINT('Origin',(2.00483353359172E-14,59.9345133223539,-74.4999999999995));
#703=CARTESIAN_POINT('',(-120.,1.00000000000001,-74.5));
#704=CARTESIAN_POINT('',(-120.,-0.130973355292321,-74.5));
#705=CARTESIAN_POINT('',(1.89428872660808E-14,1.00000000000001,-74.5));
#706=CARTESIAN_POINT('Origin',(-120.,1.00000000000001,-74.5));
#707=CARTESIAN_POINT('',(-120.,1.00000000000001,-75.));
#708=CARTESIAN_POINT('',(-120.,-0.130973355292321,-75.));
#709=CARTESIAN_POINT('',(-120.,1.00000000000001,-74.61));
#710=CARTESIAN_POINT('Origin',(1.77635683940025E-14,1.,-74.));
#711=CARTESIAN_POINT('',(1.90168824890165E-14,0.999999999999996,-75.));
#712=CARTESIAN_POINT('',(120.,-1.38777878078145E-16,-74.));
#713=CARTESIAN_POINT('Origin',(120.,1.,-74.));
#714=CARTESIAN_POINT('',(-120.,-1.38777878078145E-16,-74.));
#715=CARTESIAN_POINT('',(-60.,0.,-74.));
#716=CARTESIAN_POINT('Origin',(-120.,1.,-74.));
#717=CARTESIAN_POINT('Origin',(120.,1.,-74.5));
#718=CARTESIAN_POINT('',(120.,0.5,-74.));
#719=CARTESIAN_POINT('Origin',(120.,1.,-74.));
#720=CARTESIAN_POINT('',(120.,0.25,-74.));
#721=CARTESIAN_POINT('Origin',(-120.,0.999999999999995,-75.));
#722=CARTESIAN_POINT('',(-120.,0.5,-74.));
#723=CARTESIAN_POINT('',(-120.,0.25,-74.));
#724=CARTESIAN_POINT('Origin',(-120.,1.,-74.));
#725=CARTESIAN_POINT('Origin',(2.01223502042256E-14,59.9345133223539,-74.9999999999995));
#726=CARTESIAN_POINT('Origin',(1.77635683940025E-14,1.,-74.));
#727=CARTESIAN_POINT('',(-60.,0.5,-74.));
#728=CARTESIAN_POINT('Origin',(-120.,0.,75.));
#729=CARTESIAN_POINT('',(-120.,-6.93889390390723E-17,74.));
#730=CARTESIAN_POINT('',(-120.,0.,-75.));
#731=CARTESIAN_POINT('',(-120.,0.5,74.));
#732=CARTESIAN_POINT('',(-120.,0.25,74.));
#733=CARTESIAN_POINT('',(-120.,0.5,-75.));
#734=CARTESIAN_POINT('Origin',(2.66453525910038E-14,0.,1.77635683940025E-14));
#735=CARTESIAN_POINT('',(120.,-6.93889390390723E-17,74.));
#736=CARTESIAN_POINT('',(120.,0.,75.));
#737=CARTESIAN_POINT('',(60.,0.,74.));
#738=CARTESIAN_POINT('Origin',(5.32907051820075E-14,1.,74.));
#739=CARTESIAN_POINT('',(-120.,0.999999999999996,75.));
#740=CARTESIAN_POINT('',(120.,0.999999999999996,75.));
#741=CARTESIAN_POINT('',(4.80260472348772E-14,1.00000000000001,75.));
#742=CARTESIAN_POINT('Origin',(-120.,1.,74.));
#743=CARTESIAN_POINT('Origin',(120.,1.,74.));
#744=CARTESIAN_POINT('Origin',(120.,0.999999999999996,74.5));
#745=CARTESIAN_POINT('',(120.,0.999999999999996,74.5));
#746=CARTESIAN_POINT('',(120.,0.999999999999996,74.61));
#747=CARTESIAN_POINT('',(120.,120.,74.5000000000006));
#748=CARTESIAN_POINT('',(120.,-0.13097335529233,74.5));
#749=CARTESIAN_POINT('',(120.,120.,75.0000000000006));
#750=CARTESIAN_POINT('',(120.,120.,74.5000000000006));
#751=CARTESIAN_POINT('',(120.,-0.13097335529233,75.));
#752=CARTESIAN_POINT('Origin',(4.00966706718347E-14,59.9345133223539,74.5000000000003));
#753=CARTESIAN_POINT('',(-120.,0.999999999999996,74.5));
#754=CARTESIAN_POINT('',(4.67677748282626E-14,0.999999999999996,74.5));
#755=CARTESIAN_POINT('',(-120.,120.,74.5000000000007));
#756=CARTESIAN_POINT('',(-120.,-0.13097335529233,74.5));
#757=CARTESIAN_POINT('',(-120.,120.,74.5000000000007));
#758=CARTESIAN_POINT('Origin',(-120.,1.,74.5));
#759=CARTESIAN_POINT('',(-120.,0.999999999999996,74.61));
#760=CARTESIAN_POINT('Origin',(-120.,1.,74.));
#761=CARTESIAN_POINT('Origin',(120.,0.999999999999995,75.));
#762=CARTESIAN_POINT('',(120.,0.5,74.));
#763=CARTESIAN_POINT('',(120.,0.25,74.));
#764=CARTESIAN_POINT('Origin',(120.,1.,74.));
#765=CARTESIAN_POINT('Origin',(-120.,0.999999999999996,74.5));
#766=CARTESIAN_POINT('',(-120.,120.,75.0000000000007));
#767=CARTESIAN_POINT('',(-120.,0.999999999999996,75.));
#768=CARTESIAN_POINT('',(-120.,120.,74.5000000000007));
#769=CARTESIAN_POINT('Origin',(-120.,120.,74.5000000000007));
#770=CARTESIAN_POINT('',(-120.,120.,75.0000000000007));
#771=CARTESIAN_POINT('Origin',(4.24651464577017E-14,59.9345133223539,75.0000000000003));
#772=CARTESIAN_POINT('Origin',(5.32907051820075E-14,1.,74.));
#773=CARTESIAN_POINT('',(60.,0.5,74.));
#774=CARTESIAN_POINT('Origin',(120.,0.,-75.));
#775=CARTESIAN_POINT('',(120.,0.5,75.));
#776=CARTESIAN_POINT('Origin',(2.66453525910038E-14,0.5,1.77635683940025E-14));
#777=UNCERTAINTY_MEASURE_WITH_UNIT(LENGTH_MEASURE(0.01),#781,
'DISTANCE_ACCURACY_VALUE',
'Maximum model space distance between geometric entities at asserted c
onnectivities');
#778=UNCERTAINTY_MEASURE_WITH_UNIT(LENGTH_MEASURE(0.01),#781,
'DISTANCE_ACCURACY_VALUE',
'Maximum model space distance between geometric entities at asserted c
onnectivities');
#779=(
GEOMETRIC_REPRESENTATION_CONTEXT(3)
GLOBAL_UNCERTAINTY_ASSIGNED_CONTEXT((#777))
GLOBAL_UNIT_ASSIGNED_CONTEXT((#781,#783,#784))
REPRESENTATION_CONTEXT('','3D')
);
#780=(
GEOMETRIC_REPRESENTATION_CONTEXT(3)
GLOBAL_UNCERTAINTY_ASSIGNED_CONTEXT((#778))
GLOBAL_UNIT_ASSIGNED_CONTEXT((#781,#783,#784))
REPRESENTATION_CONTEXT('','3D')
);
#781=(
LENGTH_UNIT()
NAMED_UNIT(*)
SI_UNIT(.MILLI.,.METRE.)
);
#782=(
LENGTH_UNIT()
NAMED_UNIT(*)
SI_UNIT(.CENTI.,.METRE.)
);
#783=(
NAMED_UNIT(*)
PLANE_ANGLE_UNIT()
SI_UNIT($,.RADIAN.)
);
#784=(
NAMED_UNIT(*)
SI_UNIT($,.STERADIAN.)
SOLID_ANGLE_UNIT()
);
#785=SHAPE_DEFINITION_REPRESENTATION(#786,#787);
#786=PRODUCT_DEFINITION_SHAPE('',$,#789);
#787=SHAPE_REPRESENTATION('',(#477),#779);
#788=PRODUCT_DEFINITION_CONTEXT('part definition',#793,'design');
#789=PRODUCT_DEFINITION('Reflector','Reflector',#790,#788);
#790=PRODUCT_DEFINITION_FORMATION('',$,#795);
#791=PRODUCT_RELATED_PRODUCT_CATEGORY('Reflector','Reflector',(#795));
#792=APPLICATION_PROTOCOL_DEFINITION('international standard',
'automotive_design',2009,#793);
#793=APPLICATION_CONTEXT(
'Core Data for Automotive Mechanical Design Process');
#794=PRODUCT_CONTEXT('part definition',#793,'mechanical');
#795=PRODUCT('Reflector','Reflector',$,(#794));
#796=PRESENTATION_STYLE_ASSIGNMENT((#797));
#797=SURFACE_STYLE_USAGE(.BOTH.,#800);
#798=SURFACE_STYLE_RENDERING_WITH_PROPERTIES($,#804,(#799));
#799=SURFACE_STYLE_TRANSPARENT(0.);
#800=SURFACE_SIDE_STYLE('',(#801,#798));
#801=SURFACE_STYLE_FILL_AREA(#802);
#802=FILL_AREA_STYLE('',(#803));
#803=FILL_AREA_STYLE_COLOUR('',#804);
#804=COLOUR_RGB('',0.749019607843137,0.749019607843137,0.749019607843137);
ENDSEC;
END-ISO-10303-21;
